<svg xmlns="http://www.w3.org/2000/svg" width="1410" height="370" viewBox="0 0 1410 370">
  <defs>
    <style>
      .cls-1 {
        fill: #69bde9;
      }

      .cls-1, .cls-2 {
        fill-rule: evenodd;
      }

      .cls-2 {
        fill: #181616;
      }
    </style>
  </defs>
  <g id="glorian-light-logo">
    <g>
      <path id="Layer_3" data-name="Layer 3" class="cls-1" d="M279.066,460v69.265H242.413l-1.506-1.506v-26.1l-1.506-1.506H63.668l-1.506,1.506V653.237c0,18.423,54.419,56.979,69.77,66.777,3.78,2.412,16.826,11.3,20.094,11.122,3.1-.167,25.012-14.99,29.355-17.948,13.641-9.292,59.526-43.259,59.526-59.951V607.061l-1.506-1.506H158.062l-1.507,1.506v61.233l-2.046,1.077c-8.847-4.458-38.121-26.708-38.121-36.21V567.912l1.507-1.507H279.066V668.294c0,18.615-44.685,56.031-59.332,67.172A604.9,604.9,0,0,1,151.872,780c-2.847.245-31.548-18.529-36.208-21.638C100.134,748,83.029,735.9,68.715,723.982s-42.545-38-44.586-56.817L24,460H279.066Z" transform="translate(0 -435)"/>
      <path id="Layer_4" data-name="Layer 4" class="cls-2" d="M364.532,480.918a11.732,11.732,0,0,0,3.153.33c4.611,0,7.4-2.262,7.4-6.282,0-3.9-2.782-5.8-6.952-5.8a18.358,18.358,0,0,0-3.6.3v11.452Zm-3.8-14.172a41.752,41.752,0,0,1,7.318-.587c3.733,0,6.494.863,8.252,2.446a8.007,8.007,0,0,1,2.589,6.16,8.648,8.648,0,0,1-2.288,6.3c-2.029,2.151-5.283,3.223-9,3.223a12.475,12.475,0,0,1-3.075-.274v11.8h-3.8V466.746Zm71.591,14.172a11.724,11.724,0,0,0,3.152.33c4.612,0,7.4-2.262,7.4-6.282,0-3.9-2.781-5.8-6.952-5.8a18.354,18.354,0,0,0-3.6.3v11.452Zm-3.8-14.172a41.749,41.749,0,0,1,7.317-.587c3.733,0,6.5.863,8.253,2.446a8.007,8.007,0,0,1,2.589,6.16,8.652,8.652,0,0,1-2.288,6.3c-2.029,2.151-5.283,3.223-9,3.223a12.47,12.47,0,0,1-3.075-.274v11.8h-3.8V466.746Zm67.792-.358h15.856v3.167H500.139v9.8h11.119V482.5H500.139v13.317h-3.822V466.388Zm70.675,6.412a8.352,8.352,0,0,0,2.24,5.3c2.987-1.7,4.888-3.267,4.888-5.757,0-1.819-1.019-3.811-3.425-3.811s-3.7,2.028-3.7,4.273m8.949,17.954c-1.746-1.91-5.022-5.514-8.266-9.266-1.61,1.017-3.8,2.875-3.8,5.97a5.782,5.782,0,0,0,6.006,5.946,8.149,8.149,0,0,0,6.064-2.65m4.652,5.061c-0.848-.847-1.608-1.677-2.748-2.868a12.163,12.163,0,0,1-8.6,3.348c-5.715,0-9.051-3.85-9.051-8.254,0-4.009,2.412-6.745,5.741-8.592l0.008-.137a10.173,10.173,0,0,1-2.451-6.141,7.16,7.16,0,0,1,7.487-7.263c3.665,0,6.512,2.425,6.512,6.248,0,3.089-1.81,5.527-6.46,7.848l-0.009.148c2.5,2.89,5.284,6.081,7.176,8.186a21.743,21.743,0,0,0,2.834-8.589h3.482c-0.786,4.623-2.042,8.281-4.242,10.857,1.581,1.685,3.1,3.325,4.879,5.209h-4.558Zm57.328,0-7.462-29.426h4.031L638,481.279c0.848,3.679,1.635,7.324,2.159,10.172h0.1c0.477-2.921,1.4-6.431,2.394-10.217l3.954-14.845h3.94l3.6,14.912c0.821,3.524,1.612,6.991,2.065,10.091h0.094c0.588-3.223,1.406-6.5,2.323-10.165l3.894-14.838h3.9l-8.354,29.426H654.1L650.4,480.5a88.473,88.473,0,0,1-1.947-9.624h-0.088A82.446,82.446,0,0,1,646.1,480.5l-4.168,15.317h-4.006Zm76.71-29.426v29.426h3.821V466.389h-3.821Zm54.993,29.426V466.389h4.181l9.429,14.872a84.977,84.977,0,0,1,5.254,9.582l0.1-.046c-0.344-3.928-.414-7.516-0.414-12.076V466.389h3.581v29.426H787.89L778.532,480.9a95.982,95.982,0,0,1-5.477-9.853l-0.13.047c0.227,3.728.279,7.275,0.279,12.139v12.583h-3.58Zm77.114-2.991a27.153,27.153,0,0,0,3.824.179c8.15,0.02,12.538-4.517,12.538-12.474,0.046-6.951-3.887-11.337-11.906-11.337a22.742,22.742,0,0,0-4.456.388v23.244Zm-3.819-26.032a50.9,50.9,0,0,1,8.091-.633c5.447,0,9.352,1.291,11.927,3.7,2.632,2.383,4.168,5.791,4.168,10.53,0,4.824-1.507,8.728-4.234,11.447-2.782,2.739-7.334,4.242-13.036,4.242a61.278,61.278,0,0,1-6.916-.328V466.792Zm75.951,14.48c0,6.3,3.421,11.932,9.418,11.932,6.039,0,9.432-5.544,9.432-12.23,0-5.858-3.058-11.974-9.384-11.974s-9.466,5.835-9.466,12.272m22.871-.465c0,10.1-6.155,15.488-13.66,15.488-7.808,0-13.232-6.042-13.232-14.935,0-9.324,5.773-15.452,13.632-15.452,8.04,0,13.26,6.156,13.26,14.9M996.1,495.815l-7.462-29.426h4.031l3.506,14.89c0.848,3.679,1.635,7.324,2.159,10.172h0.1c0.477-2.921,1.4-6.431,2.4-10.217l3.95-14.845h3.94l3.6,14.912c0.82,3.524,1.62,6.991,2.07,10.091h0.09c0.59-3.223,1.41-6.5,2.32-10.165l3.9-14.838h3.9l-8.35,29.426h-3.97l-3.71-15.312a86.885,86.885,0,0,1-1.94-9.624h-0.09a83.576,83.576,0,0,1-2.27,9.619l-4.17,15.317h-4Zm130.522-29.427h15.86v3.167h-12.04v9.8h11.12V482.5h-11.12v13.317h-3.82V466.388Zm65.83,0v29.426h3.82V466.389h-3.82Zm54.99,0h3.82v26.22h12.59v3.207h-16.41V466.388Zm90.02,16.5c-0.23-4.088-.5-9.055-0.47-12.691h-0.12c-1.02,3.414-2.24,7.123-3.71,11.154l-5.2,14.275h-2.87l-4.8-14.012c-1.4-4.158-2.54-7.933-3.37-11.417h-0.1c-0.1,3.666-.29,8.565-0.58,12.981l-0.78,12.632h-3.61l2.05-29.427h4.85l5.02,14.243c1.21,3.6,2.2,6.843,2.96,9.914h0.12c0.77-2.98,1.8-6.223,3.11-9.91l5.25-14.247h4.87l1.82,29.427h-3.74Z" transform="translate(0 -435)"/>
      <path id="Layer_5" data-name="Layer 5" class="cls-2" d="M885.036,586.447c0-18.241-18.7-14.732-37.939-14.732v61.453c42.814,0,37.939-1.089,37.939-46.721M865.72,529.021c19.338,0,38.991,3.794,51.917,16.589,19.08,18.54,15.124,45.052,15.124,72.245,0,16.73-7.582,30.345-20.605,41.021l30.406,98.9H890.219l-24.352-82.92H847.109v82.92h-48.6V529.008h67.228ZM728.013,582.752l-4.989-9.993c-7.32-6.016-19.5-5.965-26.97.035l-5.088,9.958,1.2,125.429c7.333,14.457,35.843,11.022,35.843-5.247V582.752Zm-17.394-56.4c25.544,0,51.435,12.339,62.674,34.9a49.177,49.177,0,0,1,5.1,22.158V703.257c0,16.543-7.3,30.035-20.2,40.685a69.153,69.153,0,0,1-21.835,12.3c-24.353,8.347-53.381,4.229-73.193-12.386-12.7-10.714-19.926-24.154-19.926-40.573V583.435c0-34.634,33.622-57.055,67.378-57.055v-0.025ZM623.754,757.779H510.835V529.008h48.62V715.816h68.752v41.963h-4.453Zm-205.739,2.739c-34.23,0-67.676-22.469-67.676-56.846V583.281a49.174,49.174,0,0,1,5.136-22.186c18.487-37.027,76.26-46.8,110.128-18.253H465.59c24.067,20.3,19.926,41.852,19.926,70.012h-50.1c0-21.427,5.907-44.826-18.671-44.826l-13.3,4.527h0.013L398.375,582.7l1.2,125.937c7.244,14.605,35.84,10.786,35.84-5.381V664.513H413.2v-41.96h72.315c0,26.237,3.659,85.783-5.126,103.367A56.591,56.591,0,0,1,465.3,744.284H465.3c-13.549,11.148-29.526,16.234-47.255,16.234h-0.025Zm541.263-93.979V657l48.612,42.1v9.516Zm0,12.976v-9.537l48.612,42.1v9.516Zm0,12.976v-9.537l48.612,42.1v9.517Zm0,12.976V695.93l48.612,42.1v9.517Zm0,12.976v-9.537L1007.89,751v9.516Zm4.139-187.18h44.163v163.9l-48.606-41.493V531.263h4.443Zm288.273,0.694,44.13,123.509V529.008h48.6V757.779h-50.14l-47.35-121.62v121.62H1198.3V529.008h52.33Zm-148.82,78.286-9.46,55.724h18.97Zm-17.13,96.945L1076,757.779h-50.48l46.56-228.771h62.07l45.94,228.771h-50.77l-9.43-50.591h-34.15Zm283.7-165.466h2.69a2.49,2.49,0,0,0,1.2-.271,1.975,1.975,0,0,0,.8-0.761,2.292,2.292,0,0,0,.27-1.13,2.269,2.269,0,0,0-.27-1.135,2.022,2.022,0,0,0-.8-0.752,2.5,2.5,0,0,0-1.2-.27h-2.69v4.319Zm-2.55,7.422v-14h5.21a5.848,5.848,0,0,1,2.52.516,4,4,0,0,1,1.72,1.5,4.357,4.357,0,0,1,.62,2.394,4.265,4.265,0,0,1-.68,2.463,4.124,4.124,0,0,1-1.85,1.5l3.21,5.617h-2.9L1371.3,543l1.66,0.98h-3.52v5.166h-2.55Zm4.85-18.967a12.05,12.05,0,1,0,12.06,12.048,12.064,12.064,0,0,0-12.06-12.048m0,26.3A14.25,14.25,0,1,1,1386,542.225a14.267,14.267,0,0,1-14.26,14.252" transform="translate(0 -435)"/>
    </g>
  </g>
</svg>
