<svg xmlns="http://www.w3.org/2000/svg" width="1410" height="370" viewBox="0 0 1410 370">
  <defs>
    <style>
      .cls-1 {
        fill: #181616;
      }

      .cls-1, .cls-2 {
        fill-rule: evenodd;
      }

      .cls-2 {
        fill: none;
        stroke: #181616;
        stroke-width: 1px;
      }
    </style>
  </defs>
  <g id="glorian-light-logo-2">
    <g>
      <path id="Layer_4" data-name="Layer 4" class="cls-1" d="M364.532,1380.92a11.9,11.9,0,0,0,3.153.33c4.611,0,7.4-2.26,7.4-6.28,0-3.9-2.782-5.8-6.952-5.8a17.89,17.89,0,0,0-3.6.3v11.45Zm-3.8-14.17a41.321,41.321,0,0,1,7.318-.59c3.733,0,6.494.86,8.252,2.45a7.994,7.994,0,0,1,2.589,6.16,8.635,8.635,0,0,1-2.288,6.29c-2.029,2.15-5.283,3.22-9,3.22a12.536,12.536,0,0,1-3.075-.27v11.81h-3.8v-29.07Zm71.591,14.17a11.888,11.888,0,0,0,3.152.33c4.612,0,7.4-2.26,7.4-6.28,0-3.9-2.781-5.8-6.952-5.8a17.886,17.886,0,0,0-3.6.3v11.45Zm-3.8-14.17a41.317,41.317,0,0,1,7.317-.59c3.733,0,6.5.86,8.253,2.45a7.994,7.994,0,0,1,2.589,6.16,8.64,8.64,0,0,1-2.288,6.29c-2.029,2.15-5.283,3.22-9,3.22a12.532,12.532,0,0,1-3.075-.27v11.81h-3.8v-29.07Zm67.792-.36h15.856v3.16H500.139v9.8h11.119v3.15H500.139v13.31h-3.822v-29.42Zm70.675,6.41a8.376,8.376,0,0,0,2.24,5.3c2.987-1.71,4.888-3.27,4.888-5.76,0-1.82-1.019-3.81-3.425-3.81s-3.7,2.02-3.7,4.27m8.949,17.95c-1.746-1.91-5.022-5.51-8.266-9.26-1.61,1.01-3.8,2.87-3.8,5.97a5.776,5.776,0,0,0,6.006,5.94,8.153,8.153,0,0,0,6.064-2.65m4.652,5.06c-0.848-.84-1.608-1.67-2.748-2.86a12.2,12.2,0,0,1-8.6,3.35c-5.715,0-9.051-3.86-9.051-8.26,0-4.01,2.412-6.74,5.741-8.59l0.008-.14a10.161,10.161,0,0,1-2.451-6.14,7.157,7.157,0,0,1,7.487-7.26c3.665,0,6.512,2.42,6.512,6.25,0,3.08-1.81,5.52-6.46,7.84l-0.009.15c2.5,2.89,5.284,6.08,7.176,8.19a21.811,21.811,0,0,0,2.834-8.59h3.482c-0.786,4.62-2.042,8.28-4.242,10.86,1.581,1.68,3.1,3.32,4.879,5.2h-4.558Zm57.328,0-7.462-29.42h4.031L638,1381.28c0.848,3.68,1.635,7.32,2.159,10.17h0.1c0.477-2.92,1.4-6.43,2.394-10.22l3.954-14.84h3.94l3.6,14.91c0.821,3.52,1.612,6.99,2.065,10.09h0.094c0.588-3.22,1.406-6.5,2.323-10.16l3.894-14.84h3.9l-8.354,29.42H654.1L650.4,1380.5a88.658,88.658,0,0,1-1.947-9.62h-0.088a82.741,82.741,0,0,1-2.266,9.62l-4.168,15.31h-4.006Zm76.71-29.42v29.43h3.821v-29.43h-3.821Zm54.993,29.42v-29.42h4.181l9.429,14.87a85.4,85.4,0,0,1,5.254,9.58l0.1-.04c-0.344-3.93-.414-7.52-0.414-12.08v-12.33h3.581v29.42H787.89l-9.358-14.91a96.264,96.264,0,0,1-5.477-9.85l-0.13.04c0.227,3.73.279,7.28,0.279,12.14v12.58h-3.58Zm77.114-2.99a26.543,26.543,0,0,0,3.824.18c8.15,0.02,12.538-4.51,12.538-12.47,0.046-6.95-3.887-11.34-11.906-11.34a22.327,22.327,0,0,0-4.456.39v23.24Zm-3.819-26.03a50.925,50.925,0,0,1,8.091-.63c5.447,0,9.352,1.29,11.927,3.7,2.632,2.38,4.168,5.79,4.168,10.52,0,4.83-1.507,8.73-4.234,11.45-2.782,2.74-7.334,4.24-13.036,4.24a61.963,61.963,0,0,1-6.916-.32v-28.96Zm75.951,14.48c0,6.3,3.421,11.93,9.418,11.93,6.039,0,9.432-5.54,9.432-12.23,0-5.85-3.058-11.97-9.384-11.97s-9.466,5.84-9.466,12.27m22.871-.46c0,10.09-6.155,15.49-13.66,15.49-7.808,0-13.232-6.05-13.232-14.94,0-9.32,5.773-15.45,13.632-15.45,8.04,0,13.26,6.15,13.26,14.9m54.357,15-7.462-29.42h4.031l3.506,14.89c0.848,3.68,1.635,7.32,2.159,10.17h0.1c0.477-2.92,1.4-6.43,2.4-10.22l3.95-14.84h3.94l3.6,14.91c0.82,3.52,1.62,6.99,2.07,10.09h0.09c0.59-3.22,1.41-6.5,2.32-10.16l3.9-14.84h3.9l-8.35,29.42h-3.97l-3.71-15.31a87.062,87.062,0,0,1-1.94-9.62h-0.09a83.88,83.88,0,0,1-2.27,9.62l-4.17,15.31h-4Zm130.522-29.42h15.86v3.16h-12.04v9.8h11.12v3.15h-11.12v13.31h-3.82v-29.42Zm65.83,0v29.43h3.82v-29.43h-3.82Zm54.99,0h3.82v26.22h12.59v3.2h-16.41v-29.42Zm90.02,16.5c-0.23-4.08-.5-9.05-0.47-12.69h-0.12c-1.02,3.42-2.24,7.13-3.71,11.16l-5.2,14.27h-2.87l-4.8-14.01c-1.4-4.16-2.54-7.93-3.37-11.42h-0.1c-0.1,3.67-.29,8.57-0.58,12.98l-0.78,12.63h-3.61l2.05-29.42h4.85l5.02,14.24c1.21,3.6,2.2,6.84,2.96,9.92h0.12c0.77-2.99,1.8-6.23,3.11-9.92l5.25-14.24h4.87l1.82,29.42h-3.74Z" transform="translate(0 -1335)"/>
      <path id="Layer_5" data-name="Layer 5" class="cls-1" d="M885.036,1486.45c0-18.24-18.7-14.74-37.939-14.74v61.46c42.814,0,37.939-1.09,37.939-46.72m-19.316-57.43c19.338,0,38.991,3.79,51.917,16.59,19.08,18.54,15.124,45.05,15.124,72.24,0,16.73-7.582,30.35-20.605,41.03l30.406,98.9H890.219l-24.352-82.92H847.109v82.92h-48.6V1429.01h67.228Zm-137.707,53.73-4.989-9.99c-7.32-6.02-19.5-5.97-26.97.03l-5.088,9.96,1.2,125.43c7.333,14.46,35.843,11.02,35.843-5.25V1482.75Zm-17.394-56.4c25.544,0,51.435,12.34,62.674,34.9a49.173,49.173,0,0,1,5.1,22.16v119.85c0,16.54-7.3,30.03-20.2,40.68a69,69,0,0,1-21.835,12.3c-24.353,8.35-53.381,4.23-73.193-12.38-12.7-10.72-19.926-24.16-19.926-40.58V1483.43c0-34.63,33.622-57.05,67.378-57.05v-0.03Zm-86.865,231.43H510.835V1429.01h48.62v186.81h68.752v41.96h-4.453Zm-205.739,2.74c-34.23,0-67.676-22.47-67.676-56.85V1483.28a49.137,49.137,0,0,1,5.136-22.18c18.487-37.03,76.26-46.8,110.128-18.26H465.59c24.067,20.3,19.926,41.85,19.926,70.01h-50.1c0-21.42,5.907-44.82-18.671-44.82l-13.3,4.53h0.013l-5.088,10.14,1.2,125.93c7.244,14.61,35.84,10.79,35.84-5.38v-38.74H413.2v-41.96h72.315c0,26.24,3.659,85.79-5.126,103.37a56.516,56.516,0,0,1-15.086,18.36H465.3c-13.549,11.15-29.526,16.24-47.255,16.24h-0.025Zm541.263-93.98V1557l48.612,42.1v9.51Zm0,12.98v-9.54l48.612,42.09v9.52Zm0,12.97v-9.54l48.612,42.1v9.52Zm0,12.98v-9.54l48.612,42.1v9.51Zm0,12.97v-9.53L1007.89,1651v9.52Zm4.139-187.18h44.163v163.91l-48.606-41.49V1431.26h4.443Zm288.273,0.7,44.13,123.51V1429.01h48.6v228.77h-50.14l-47.35-121.62v121.62H1198.3V1429.01h52.33Zm-148.82,78.28-9.46,55.73h18.97Zm-17.13,96.95-9.74,50.59h-50.48l46.56-228.77h62.07l45.94,228.77h-50.77l-9.43-50.59h-34.15Zm283.7-165.47h2.69a2.5,2.5,0,0,0,1.2-.27,1.954,1.954,0,0,0,.8-0.76,2.3,2.3,0,0,0,.27-1.13,2.224,2.224,0,0,0-.27-1.13,2.02,2.02,0,0,0-.8-0.76,2.5,2.5,0,0,0-1.2-.27h-2.69v4.32Zm-2.55,7.42v-13.99h5.21a5.907,5.907,0,0,1,2.52.51,4.015,4.015,0,0,1,1.72,1.51,4.318,4.318,0,0,1,.62,2.39,4.238,4.238,0,0,1-.68,2.46,4.156,4.156,0,0,1-1.85,1.51l3.21,5.61h-2.9l-3.44-6.14,1.66,0.98h-3.52v5.16h-2.55Zm4.85-18.96a12.05,12.05,0,1,0,12.06,12.04,12.061,12.061,0,0,0-12.06-12.04m0,26.3a14.25,14.25,0,1,1,14.26-14.26,14.271,14.271,0,0,1-14.26,14.26" transform="translate(0 -1335)"/>
      <g>
        <path id="Layer_3_copy" data-name="Layer 3 copy" class="cls-2" d="M282,1364v69.26H245.36l-1.506-1.5v-26.1l-1.505-1.51H66.658l-1.506,1.51v151.58c0,18.42,54.406,56.98,69.754,66.77,3.779,2.42,16.821,11.3,20.088,11.13,3.1-.17,25.007-14.99,29.348-17.95,13.638-9.29,59.512-43.26,59.512-59.95v-46.18l-1.505-1.5h-81.32l-1.506,1.5v61.23l-2.046,1.08c-8.845-4.46-38.112-26.71-38.112-36.21v-65.25l1.507-1.5H282v101.88c0,18.62-44.674,56.03-59.318,67.18A606.2,606.2,0,0,1,154.841,1684c-2.847.24-31.54-18.53-36.2-21.64C103.116,1652,86.015,1639.9,71.7,1627.98s-42.535-38-44.575-56.81L27,1364H282Z" transform="translate(0 -1335)"/>
        <path id="Layer_3_copy_2" data-name="Layer 3 copy 2" class="cls-2" d="M286,1368v69.26H249.36l-1.506-1.5v-26.1l-1.505-1.51H70.658l-1.506,1.51v151.58c0,18.42,54.406,56.98,69.754,66.77,3.779,2.42,16.821,11.3,20.088,11.13,3.1-.17,25.007-14.99,29.348-17.95,13.638-9.29,59.512-43.26,59.512-59.95v-46.18l-1.505-1.5h-81.32l-1.506,1.5v61.23l-2.046,1.08c-8.845-4.46-38.112-26.71-38.112-36.21v-65.25l1.507-1.5H286v101.88c0,18.62-44.674,56.03-59.318,67.18A606.2,606.2,0,0,1,158.841,1688c-2.847.24-31.54-18.53-36.2-21.64C107.116,1656,90.015,1643.9,75.7,1631.98s-42.535-38-44.575-56.81L31,1368H286Z" transform="translate(0 -1335)"/>
        <path id="Layer_3_copy_3" data-name="Layer 3 copy 3" class="cls-2" d="M290,1372v69.26H253.36l-1.506-1.5v-26.1l-1.505-1.51H74.658l-1.506,1.51v151.58c0,18.42,54.406,56.98,69.754,66.77,3.779,2.42,16.821,11.3,20.088,11.13,3.1-.17,25.007-14.99,29.348-17.95,13.638-9.29,59.512-43.26,59.512-59.95v-46.18l-1.505-1.5h-81.32l-1.506,1.5v61.23l-2.046,1.08c-8.845-4.46-38.112-26.71-38.112-36.21v-65.25l1.507-1.5H290v101.88c0,18.62-44.674,56.03-59.318,67.18A606.2,606.2,0,0,1,162.841,1692c-2.847.24-31.54-18.53-36.2-21.64C111.116,1660,94.015,1647.9,79.7,1635.98s-42.535-38-44.575-56.81L35,1372H290Z" transform="translate(0 -1335)"/>
        <path id="Layer_3_copy_4" data-name="Layer 3 copy 4" class="cls-2" d="M294,1376v69.26H257.36l-1.506-1.5v-26.1l-1.505-1.51H78.658l-1.506,1.51v151.58c0,18.42,54.405,56.98,69.754,66.77,3.779,2.42,16.821,11.3,20.088,11.13,3.1-.17,25.007-14.99,29.348-17.95,13.638-9.29,59.512-43.26,59.512-59.95v-46.18l-1.505-1.5h-81.32l-1.506,1.5v61.23l-2.046,1.08c-8.845-4.46-38.112-26.71-38.112-36.21v-65.25l1.507-1.5H294v101.88c0,18.62-44.674,56.03-59.318,67.18A606.2,606.2,0,0,1,166.841,1696c-2.847.24-31.54-18.53-36.2-21.64C115.116,1664,98.015,1651.9,83.7,1639.98s-42.535-38-44.575-56.81L39,1376H294Z" transform="translate(0 -1335)"/>
        <path id="Layer_3" data-name="Layer 3" class="cls-1" d="M279.066,1360v69.26H242.413l-1.506-1.5v-26.1l-1.506-1.51H63.668l-1.506,1.51v151.58c0,18.42,54.419,56.98,69.77,66.77,3.78,2.42,16.826,11.3,20.094,11.13,3.1-.17,25.012-14.99,29.355-17.95,13.641-9.29,59.526-43.26,59.526-59.95v-46.18l-1.506-1.5H158.062l-1.507,1.5v61.23l-2.046,1.08c-8.847-4.46-38.121-26.71-38.121-36.21v-65.25l1.507-1.5H279.066v101.88c0,18.62-44.685,56.03-59.332,67.18A606.41,606.41,0,0,1,151.872,1680c-2.847.24-31.548-18.53-36.208-21.64-15.53-10.36-32.635-22.46-46.949-34.38s-42.545-38-44.586-56.81L24,1360H279.066Z" transform="translate(0 -1335)"/>
      </g>
    </g>
  </g>
</svg>
