<svg xmlns="http://www.w3.org/2000/svg" width="400" height="400" viewBox="0 0 400 400">
  <defs>
    <style>
      .cls-1 {
        fill: #fff;
        fill-rule: evenodd;
      }
    </style>
  </defs>
  <g id="glorian-icon-white">
    <path id="Layer_3" data-name="Layer 3" class="cls-1" d="M764.066,910v69.265H727.413l-1.506-1.506v-26.1l-1.506-1.506H548.668l-1.506,1.506V1103.24c0,18.42,54.419,56.98,69.77,66.77,3.78,2.42,16.826,11.3,20.094,11.13,3.1-.17,25.012-14.99,29.355-17.95,13.641-9.29,59.526-43.26,59.526-59.95v-46.18l-1.506-1.5H643.062l-1.507,1.5v61.23l-2.046,1.08c-8.847-4.46-38.121-26.71-38.121-36.21v-65.25l1.507-1.5H764.066v101.88c0,18.62-44.685,56.03-59.332,67.18A606.41,606.41,0,0,1,636.872,1230c-2.847.24-31.548-18.53-36.208-21.64-15.53-10.36-32.635-22.46-46.949-34.38s-42.546-38-44.587-56.81L509,910H764.066Z" transform="translate(-437 -870)"/>
  </g>
</svg>
