<svg xmlns="http://www.w3.org/2000/svg" width="400" height="400" viewBox="0 0 400 400">
  <defs>
    <style>
      .cls-1 {
        fill: none;
        stroke: #fff;
        stroke-width: 1px;
      }

      .cls-1, .cls-2 {
        fill-rule: evenodd;
      }

      .cls-2 {
        fill: #fff;
      }
    </style>
  </defs>
  <g id="glorian-icon-white-lined">
    <g>
      <path id="Layer_3_copy" data-name="Layer 3 copy" class="cls-1" d="M1197,906v69.265h-36.64l-1.51-1.506v-26.1l-1.5-1.506H981.658l-1.5,1.506V1099.24c0,18.42,54.407,56.98,69.757,66.77,3.77,2.42,16.82,11.3,20.08,11.13,3.11-.17,25.01-14.99,29.35-17.95,13.64-9.29,59.51-43.26,59.51-59.95v-46.18l-1.5-1.5h-81.32l-1.51,1.5v61.23l-2.04,1.08c-8.85-4.46-38.11-26.71-38.11-36.21v-65.25l1.5-1.5H1197v101.88c0,18.62-44.67,56.03-59.31,67.18a605.894,605.894,0,0,1-67.85,44.53c-2.85.24-31.54-18.53-36.2-21.64-15.52-10.36-32.63-22.46-46.936-34.38s-42.535-38-44.576-56.81L942,906h255Z" transform="translate(-874 -870)"/>
      <path id="Layer_3_copy_2" data-name="Layer 3 copy 2" class="cls-1" d="M1201,910v69.265h-36.64l-1.51-1.506v-26.1l-1.5-1.506H985.658l-1.5,1.506V1103.24c0,18.42,54.407,56.98,69.757,66.77,3.77,2.42,16.82,11.3,20.08,11.13,3.11-.17,25.01-14.99,29.35-17.95,13.64-9.29,59.51-43.26,59.51-59.95v-46.18l-1.5-1.5h-81.32l-1.51,1.5v61.23l-2.04,1.08c-8.85-4.46-38.11-26.71-38.11-36.21v-65.25l1.5-1.5H1201v101.88c0,18.62-44.67,56.03-59.31,67.18a605.894,605.894,0,0,1-67.85,44.53c-2.85.24-31.54-18.53-36.2-21.64-15.52-10.36-32.63-22.46-46.936-34.38s-42.535-38-44.576-56.81L946,910h255Z" transform="translate(-874 -870)"/>
      <path id="Layer_3_copy_3" data-name="Layer 3 copy 3" class="cls-1" d="M1205,914v69.265h-36.64l-1.51-1.506v-26.1l-1.5-1.506H989.658l-1.5,1.506V1107.24c0,18.42,54.407,56.98,69.757,66.77,3.77,2.42,16.82,11.3,20.08,11.13,3.11-.17,25.01-14.99,29.35-17.95,13.64-9.29,59.51-43.26,59.51-59.95v-46.18l-1.5-1.5h-81.32l-1.51,1.5v61.23l-2.04,1.08c-8.85-4.46-38.11-26.71-38.11-36.21v-65.25l1.5-1.5H1205v101.88c0,18.62-44.67,56.03-59.31,67.18a605.894,605.894,0,0,1-67.85,44.53c-2.85.24-31.54-18.53-36.2-21.64-15.52-10.36-32.63-22.46-46.936-34.38s-42.535-38-44.576-56.81L950,914h255Z" transform="translate(-874 -870)"/>
      <path id="Layer_3_copy_4" data-name="Layer 3 copy 4" class="cls-1" d="M1209,918v69.265h-36.64l-1.51-1.506v-26.1l-1.5-1.506H993.658l-1.5,1.506V1111.24c0,18.42,54.407,56.98,69.757,66.77,3.77,2.42,16.82,11.3,20.08,11.13,3.11-.17,25.01-14.99,29.35-17.95,13.64-9.29,59.51-43.26,59.51-59.95v-46.18l-1.5-1.5h-81.32l-1.51,1.5v61.23l-2.04,1.08c-8.85-4.46-38.11-26.71-38.11-36.21v-65.25l1.5-1.5H1209v101.88c0,18.62-44.67,56.03-59.31,67.18a605.894,605.894,0,0,1-67.85,44.53c-2.85.24-31.54-18.53-36.2-21.64-15.52-10.36-32.63-22.46-46.936-34.38s-42.535-38-44.576-56.81L954,918h255Z" transform="translate(-874 -870)"/>
      <path id="Layer_3" data-name="Layer 3" class="cls-2" d="M1194.07,902v69.265h-36.66l-1.5-1.506v-26.1l-1.51-1.506H978.668l-1.506,1.506V1095.24c0,18.42,54.418,56.98,69.768,66.77,3.78,2.42,16.83,11.3,20.1,11.13,3.1-.17,25.01-14.99,29.35-17.95,13.64-9.29,59.53-43.26,59.53-59.95v-46.18l-1.51-1.5h-81.34l-1.5,1.5v61.23l-2.05,1.08c-8.85-4.46-38.12-26.71-38.12-36.21v-65.25l1.5-1.5h161.18v101.88c0,18.62-44.69,56.03-59.34,67.18a606.019,606.019,0,0,1-67.86,44.53c-2.85.24-31.55-18.53-36.21-21.64-15.53-10.36-32.631-22.46-46.945-34.38s-42.546-38-44.587-56.81L939,902H1194.07Z" transform="translate(-874 -870)"/>
    </g>
  </g>
</svg>
